<?xml version="1.0" encoding="UTF-8"?>
<svg xmlns="http://www.w3.org/2000/svg" xmlns:xlink="http://www.w3.org/1999/xlink" width="96px" height="96px" viewBox="0 0 96 96" version="1.1">
<g id="surface1">
<path style=" stroke:none;fill-rule:nonzero;fill:rgb(100%,100%,100%);fill-opacity:1;" d="M 23.246094 25.457031 C 20.207031 26.863281 20.238281 31.121094 23.3125 32.480469 C 24.03125 32.800781 24.304688 32.800781 47.839844 32.800781 C 71.375 32.800781 71.648438 32.800781 72.367188 32.480469 C 75.472656 31.105469 75.472656 26.816406 72.367188 25.441406 C 71.648438 25.121094 71.390625 25.121094 47.777344 25.136719 C 24.59375 25.152344 23.902344 25.152344 23.246094 25.457031 Z M 23.246094 25.457031 "/>
<path style=" stroke:none;fill-rule:nonzero;fill:rgb(100%,100%,100%);fill-opacity:1;" d="M 23.246094 44.65625 C 20.207031 46.0625 20.238281 50.320312 23.3125 51.679688 C 24.03125 52 24.320312 52 40.160156 52 C 56 52 56.289062 52 57.007812 51.679688 C 60.113281 50.304688 60.113281 46.015625 57.007812 44.640625 C 56.289062 44.320312 56 44.320312 40.097656 44.335938 C 24.496094 44.351562 23.902344 44.351562 23.246094 44.65625 Z M 23.246094 44.65625 "/>
<path style=" stroke:none;fill-rule:nonzero;fill:rgb(100%,100%,100%);fill-opacity:1;" d="M 23.246094 63.855469 C 20.207031 65.265625 20.238281 69.519531 23.3125 70.878906 C 24.015625 71.183594 24.351562 71.199219 32.480469 71.199219 C 40.609375 71.199219 40.945312 71.183594 41.648438 70.878906 C 44.753906 69.503906 44.753906 65.214844 41.648438 63.839844 C 40.945312 63.535156 40.625 63.519531 32.414062 63.535156 C 24.382812 63.550781 23.886719 63.566406 23.246094 63.855469 Z M 23.246094 63.855469 "/>
</g>
</svg>
